<svg width="12" height="12" viewBox="0 0 12 12" fill="none" xmlns="http://www.w3.org/2000/svg">
<path d="M10.6332 10.4991H1.36669C1.18806 10.4991 1.023 10.4038 0.933683 10.2491C0.84437 10.0944 0.844371 9.90376 0.933687 9.74906L5.56669 1.74906C5.65607 1.59461 5.82099 1.49951 5.99944 1.49951C6.17788 1.49951 6.3428 1.59461 6.43219 1.74906L11.0652 9.74906C11.1545 9.90368 11.1545 10.0942 11.0653 10.2488C10.9761 10.4035 10.8112 10.4989 10.6327 10.4991H10.6332ZM6.00019 2.99906L2.23469 9.49906H9.76669L6.00019 2.99906ZM6.49769 7.49956H5.49769V4.99906H6.49769V7.49956Z" fill="#C40808"/>
<path d="M5.50019 8.00006H6.50019V9.00006H5.50019V8.00006Z" fill="#C40808"/>
</svg>
