<svg width="32" height="32" viewBox="0 0 32 32" fill="none" xmlns="http://www.w3.org/2000/svg">
<rect width="32" height="32" rx="4" fill="white"/>
<path fill-rule="evenodd" clip-rule="evenodd" d="M11.1216 9.27135C11.4012 9.03173 11.822 9.06411 12.0616 9.34366L17.395 15.5659C17.609 15.8155 17.609 16.1839 17.395 16.4336L12.0616 22.6558C11.822 22.9354 11.4012 22.9677 11.1216 22.7281C10.8421 22.4885 10.8097 22.0677 11.0493 21.7881L16.0108 15.9997L11.0493 10.2114C10.8097 9.93183 10.8421 9.51096 11.1216 9.27135ZM14.6773 9.27144C14.9569 9.03183 15.3778 9.0642 15.6174 9.34375L20.9507 15.566C21.1647 15.8156 21.1647 16.184 20.9507 16.4337L15.6174 22.6559C15.3778 22.9355 14.9569 22.9678 14.6773 22.7282C14.3978 22.4886 14.3654 22.0677 14.605 21.7882L19.5665 15.9998L14.605 10.2115C14.3654 9.93192 14.3978 9.51105 14.6773 9.27144Z" fill="#4E4E54"/>
</svg>
